<?xml version="1.0" encoding="UTF-8" standalone="no"?>
<!-- Created with Inkscape (http://www.inkscape.org/) -->

<svg
   version="1.1"
   id="svg2"
   width="5120"
   height="2880"
   viewBox="0 0 5120 2880"
   sodipodi:docname="vecteezy_hanger-for-clother-vector-icon-illustration_8070324.eps"
   xmlns:inkscape="http://www.inkscape.org/namespaces/inkscape"
   xmlns:sodipodi="http://sodipodi.sourceforge.net/DTD/sodipodi-0.dtd"
   xmlns="http://www.w3.org/2000/svg"
   xmlns:svg="http://www.w3.org/2000/svg">
  <defs
     id="defs6" />
  <sodipodi:namedview
     id="namedview4"
     pagecolor="#ffffff"
     bordercolor="#000000"
     borderopacity="0.25"
     inkscape:showpageshadow="2"
     inkscape:pageopacity="0.0"
     inkscape:pagecheckerboard="0"
     inkscape:deskcolor="#d1d1d1" />
  <g
     id="g8"
     inkscape:groupmode="layer"
     inkscape:label="ink_ext_XXXXXX"
     transform="matrix(1.3333333,0,0,-1.3333333,0,2880)">
    <g
       id="g10"
       transform="scale(0.1)">
      <path
         d="M 38400,0 H 0 V 21600 H 38400 V 0"
         style="fill:#ffffff;fill-opacity:1;fill-rule:nonzero;stroke:none"
         id="path12" />
      <path
         d="m 17408.1,14519.4 c -3.9,46 -5.9,92.5 -5.9,139.5 0,890.3 721.7,1612 1612,1612 890.3,0 1612,-721.7 1612,-1612 0,-890.3 -721.7,-1612 -1612,-1612 h -31.6 V 11413.6 L 29113.7,7237.1 c 663.5,-270.9 469.8,-1258 -246.9,-1258 H 9503.18 c -718.92,0 -910.42,991.9 -243.17,1259.5 L 18925,11395"
         style="fill:none;stroke:#000000;stroke-width:640;stroke-linecap:round;stroke-linejoin:round;stroke-miterlimit:10;stroke-dasharray:none;stroke-opacity:1"
         id="path14" />
      <path
         d="m 19317.6,12527.3 -578.4,-211.6 c -92.1,-33.6 -194.9,14.1 -228.6,106.2 v 0 c -33.6,92 14.1,194.8 106.2,228.5 l 578.4,211.6 c 92,33.7 194.8,-14.1 228.5,-106.1 v 0 c 33.7,-92.1 -14.1,-194.9 -106.1,-228.6"
         style="fill:#000000;fill-opacity:1;fill-rule:nonzero;stroke:none"
         id="path16" />
      <path
         d="m 19317.6,12157.3 -578.4,-211.6 c -92.1,-33.6 -194.9,14.1 -228.6,106.2 v 0 c -33.6,92 14.1,194.8 106.2,228.5 l 578.4,211.6 c 92,33.7 194.8,-14.1 228.5,-106.1 v 0 c 33.7,-92.1 -14.1,-194.9 -106.1,-228.6"
         style="fill:#000000;fill-opacity:1;fill-rule:nonzero;stroke:none"
         id="path18" />
      <path
         d="m 19317.6,11777.3 -578.4,-211.6 c -92.1,-33.6 -194.9,14.1 -228.6,106.2 v 0 c -33.6,92 14.1,194.8 106.2,228.5 l 578.4,211.6 c 92,33.7 194.8,-14.1 228.5,-106.1 v 0 c 33.7,-92.1 -14.1,-194.9 -106.1,-228.6"
         style="fill:#000000;fill-opacity:1;fill-rule:nonzero;stroke:none"
         id="path20" />
    </g>
  </g>
</svg>
